<svg id="a3794185-85b8-4c6b-86f8-ed5a908fc33a" data-name="Capa 1" xmlns="http://www.w3.org/2000/svg" xmlns:xlink="http://www.w3.org/1999/xlink" viewBox="0 0 273.82 55.66"><defs><style>.e9457370-29a1-4b60-9546-b680d4c18bec{fill:#2b2725;}.a917f483-ec13-4cbc-be41-f094c7388360{fill:url(#fe44c8ca-d7b3-4ba9-a679-c2e559110ec3);}</style><radialGradient id="fe44c8ca-d7b3-4ba9-a679-c2e559110ec3" cx="40.57" cy="7.24" r="56.1" gradientUnits="userSpaceOnUse"><stop offset="0.06" stop-color="#08a8cb"/><stop offset="1" stop-color="#e894a8"/></radialGradient></defs><rect class="e9457370-29a1-4b60-9546-b680d4c18bec" x="37.89" y="39.17" width="6.55" height="6.55"/><path class="e9457370-29a1-4b60-9546-b680d4c18bec" d="M44.48,47.27H37.93v6.55H40.5q1.89-1.18,4-2.28Z" transform="translate(-0.04 0.36)"/><rect class="e9457370-29a1-4b60-9546-b680d4c18bec" x="46.05" y="39.17" width="6.55" height="6.55"/><path class="e9457370-29a1-4b60-9546-b680d4c18bec" d="M52.64,47.27H46.09v3.46c2.15-1.07,4.28-2.14,6.55-3.11Z" transform="translate(-0.04 0.36)"/><path class="e9457370-29a1-4b60-9546-b680d4c18bec" d="M78.68,43.81,45.25,10.44,26.65,29V20.25H16.27V39.38L4.06,51.57,15.54,55.3,45.25,25.63,63.94,44.29a56.44,56.44,0,0,1,9.33-.72C75.09,43.57,76.9,43.65,78.68,43.81Z" transform="translate(-0.04 0.36)"/><path class="a917f483-ec13-4cbc-be41-f094c7388360" d="M42.18-.36A42.16,42.16,0,0,0,1,50.84L13.4,38.47V17.69H29.62v4.59L45.31,6.61l38.85,38.8c.11-1.2.17-2.4.17-3.62A42.15,42.15,0,0,0,42.18-.36Z" transform="translate(-0.04 0.36)"/><path class="e9457370-29a1-4b60-9546-b680d4c18bec" d="M145.92,24.85v8.3a5.62,5.62,0,0,0-4.71-2.91c-3.27,0-5.92,3.31-5.92,7.4s2.65,7.41,5.92,7.41a5.64,5.64,0,0,0,4.71-2.91v2.91h3.5V24.85ZM142.1,42.2c-2,0-3.67-2-3.67-4.51s1.64-4.5,3.67-4.5,3.67,2,3.67,4.5S144.13,42.2,142.1,42.2Z" transform="translate(-0.04 0.36)"/><path class="e9457370-29a1-4b60-9546-b680d4c18bec" d="M165.25,37.48a7.17,7.17,0,1,0-14.34.21,7.24,7.24,0,0,0,7.18,7.52,6.9,6.9,0,0,0,6.6-4.44H161a3.52,3.52,0,0,1-2.87,1.71c-2,0-3.66-2-3.77-4.54h10.93Zm-7.16-4.57c1.75,0,3.2,1.51,3.63,3.55h-7.27C154.88,34.42,156.33,32.91,158.09,32.91Z" transform="translate(-0.04 0.36)"/><path class="e9457370-29a1-4b60-9546-b680d4c18bec" d="M273.85,37.48a7.17,7.17,0,1,0-14.34.21,7.24,7.24,0,0,0,7.18,7.52,6.9,6.9,0,0,0,6.6-4.44h-3.73a3.5,3.5,0,0,1-2.87,1.71c-2,0-3.66-2-3.77-4.54h10.93Zm-7.16-4.57c1.75,0,3.2,1.51,3.63,3.55h-7.27C263.48,34.42,264.94,32.91,266.69,32.91Z" transform="translate(-0.04 0.36)"/><path class="e9457370-29a1-4b60-9546-b680d4c18bec" d="M174.86,30.24A5.77,5.77,0,0,0,170.13,33V30.84h-3.5V45.05h3.5V37.64s0-4.52,3.42-4.52c2.66,0,2.66,1.83,2.66,1.83v10.1h3.5V33.63C179.71,31.56,177.31,30.24,174.86,30.24Z" transform="translate(-0.04 0.36)"/><path class="e9457370-29a1-4b60-9546-b680d4c18bec" d="M253.35,30.24a5.37,5.37,0,0,0-4.53,2.88,5,5,0,0,0-4.15-2.95,5.28,5.28,0,0,0-4.33,2.56v-2h-3.5V45h3.5V36.21c.21-1.34.87-3.16,2.9-3.16,2.49,0,2.46,2.74,2.46,2.74V45h3.5v-9.5a2.81,2.81,0,0,1,2.72-2.36c2.49,0,2.47,2.73,2.47,2.73v9.2h3.49V34.75A5,5,0,0,0,253.35,30.24Z" transform="translate(-0.04 0.36)"/><path class="e9457370-29a1-4b60-9546-b680d4c18bec" d="M129.57,30.84v7.4c0,1.35-.66,4-3.61,4a2.32,2.32,0,0,1-2.47-2.49V30.84H120V41.07c0,1.91,1.66,4,4.76,4a6,6,0,0,0,4.82-2.29v2.29h3.5V30.84Z" transform="translate(-0.04 0.36)"/><path class="e9457370-29a1-4b60-9546-b680d4c18bec" d="M193.72,33.1V30.6h-8.14V26.53h-3.5v14.2c0,4,3.85,4.32,6.37,4.32s5.27-2,5.27-4.32V36.46h-3.14v4.27c0,2.32-5,2.6-5,0V33.1Z" transform="translate(-0.04 0.36)"/><path class="e9457370-29a1-4b60-9546-b680d4c18bec" d="M117.57,33.1V30.6h-8.15V26.53h-3.5v14.2c0,4,3.86,4.32,6.38,4.32s5.27-2,5.27-4.32V36.46h-3.15v4.27c0,2.32-5,2.6-5,0V33.1Z" transform="translate(-0.04 0.36)"/><polygon class="e9457370-29a1-4b60-9546-b680d4c18bec" points="212.84 18.02 212.84 28.68 201.46 28.68 201.46 18.02 196.19 18.02 196.19 45.4 201.46 45.4 201.46 33.02 212.84 33.02 212.84 45.4 218.11 45.4 218.11 18.02 212.84 18.02"/><path class="e9457370-29a1-4b60-9546-b680d4c18bec" d="M227.4,30.24a7.05,7.05,0,0,0-7.41,7.4c0,5.3,3.32,7.41,7.41,7.41s7.4-2.48,7.4-7.41A7,7,0,0,0,227.4,30.24Zm-.12,12.21c-2.26,0-4.09-2.12-4.09-4.75S225,33,227.28,33s4.09,2.12,4.09,4.74S229.54,42.45,227.28,42.45Z" transform="translate(-0.04 0.36)"/><path class="e9457370-29a1-4b60-9546-b680d4c18bec" d="M100,30h3.48c0-3.29-3.24-5.51-7.43-5.51s-7.48,1.5-7.48,5.87,2.81,4.71,6.88,5.92S101,37.72,101,39.64c0,1.61-2.15,2.93-4.25,2.93S92.06,41.43,92,39H88.59c0,5.63,4.73,6.34,7.9,6.34s8-1,8-5.74c0-5.33-4-5.63-6.88-6.59S92,32.43,92,29.92,97.93,26,100,30Z" transform="translate(-0.04 0.36)"/></svg>